<svg xmlns="http://www.w3.org/2000/svg" width="1600" height="800" viewBox="0 0 1600 800"><path d="M913.137,4C913.137,4,908.941,11.983,909.863,16.162C911.109,21.807,916.653,28.978,924.623,33.783C938.924,42.406,972.358,49.346,996.985,49.331C1022.673,49.317,1059.754,40.816,1075.702,32.323C1084.284,27.753,1090.536,21.669,1092.509,16.162C1093.938,12.171,1091.077,4,1091.077,4" stroke="rgba(231,225,214,0.07)" stroke-width="3" fill="none" stroke-linecap="round" stroke-miterlimit="4"></path><path d="M828.141,4.27C828.141,4.27,827.695,23.691,832.626,32.323C838.924,43.351,854.751,54.351,868.342,61.887C882.574,69.778,899.12,74.275,916.583,77.933C936.267,82.055,958.27,83.862,980.905,83.852C1006.212,83.84,1035.652,81.163,1061.307,76.377C1085.643,71.838,1111.871,65.183,1131.222,56.566C1146.536,49.746,1161.829,42.377,1169.736,32.323C1176.142,24.177,1179.244,4,1179.244,4" stroke="rgba(231,225,214,0.07)" stroke-width="3" fill="none" stroke-linecap="round" stroke-miterlimit="4"></path><path d="M767.597,4C767.597,4,766.096,17.448,767.779,24.242C769.702,32.005,773.464,39.92,779.899,47.714C789.056,58.805,805.672,71.929,821.918,80.808C839.983,90.682,861.961,97.614,884.422,102.448C909.237,107.789,935.778,109.825,964.824,109.76C999.2,109.682,1041.344,105.482,1077.387,99.013C1111.662,92.862,1148.546,84.16,1176.202,72.727C1198.185,63.64,1221.002,50.492,1232.138,40.404C1238.319,34.806,1241.464,30.269,1243.742,24.242C1246.046,18.149,1245.778,4,1245.778,4" stroke="rgba(231,225,214,0.07)" stroke-width="3" fill="none" stroke-linecap="round" stroke-miterlimit="4"></path><path d="M1596,644.495C1596,644.495,1544.384,620.401,1530.142,606.061C1520.184,596.034,1512.463,582.834,1511.575,573.737C1510.974,567.582,1513.571,562.501,1517.051,557.576C1521.358,551.482,1528.356,545.949,1537.571,541.414C1551.568,534.526,1596,526.65,1596,526.65" stroke="rgba(231,225,214,0.07)" stroke-width="3" fill="none" stroke-linecap="round" stroke-miterlimit="4"></path><path d="M4,205.843C4,205.843,73.94,203.187,96.482,197.456C110.328,193.936,119.828,189.963,128.643,183.573C136.706,177.728,146.208,168.845,148.049,161.616C149.433,156.178,147.906,150.442,144.348,145.455C139.002,137.961,126.941,130.974,112.563,125.684C88.403,116.795,8.04,110.03,8.04,110.03" stroke="rgba(231,225,214,0.07)" stroke-width="3" fill="none" stroke-linecap="round" stroke-miterlimit="4"></path><path d="M714.459,4C714.459,4,715.573,35.333,723.618,49.427C733.583,66.884,755.926,84.572,776.493,96.97C798.408,110.181,825.617,118.766,852.261,124.852C880.214,131.236,908.021,133.295,940.704,133.409C981.32,133.551,1032.033,128.472,1077.387,121.148C1123.365,113.722,1175.917,103.112,1214.682,88.889C1245.436,77.605,1278.371,62.412,1293.727,48.485C1302.473,40.553,1307.017,32.305,1309.268,24.242C1311.155,17.482,1308.75,4,1308.75,4" stroke="rgba(231,225,214,0.07)" stroke-width="3" fill="none" stroke-linecap="round" stroke-miterlimit="4"></path><path d="M1596,674.909C1596,674.909,1513.82,639.526,1488.844,622.222C1473.145,611.346,1461.75,600.742,1454.479,589.899C1449.085,581.856,1445.385,574.211,1445.202,565.657C1444.999,556.193,1449.137,544.485,1455.276,535.529C1462.289,525.299,1474.825,516.624,1487.203,509.091C1501.156,500.599,1518.358,493.98,1535.678,488.492C1554.425,482.551,1596,475.512,1596,475.512" stroke="rgba(231,225,214,0.07)" stroke-width="3" fill="none" stroke-linecap="round" stroke-miterlimit="4"></path><path d="M1596,326.566C1596,326.566,1572.371,298.514,1565.553,282.828C1558.976,267.696,1554.797,250.467,1555.122,234.343C1555.448,218.143,1560.567,200.263,1567.616,185.859C1574.404,171.99,1596,149.139,1596,149.139" stroke="rgba(231,225,214,0.07)" stroke-width="3" fill="none" stroke-linecap="round" stroke-miterlimit="4"></path><path d="M4,237.337C4,237.337,61.532,240.477,88.442,237.599C113.648,234.903,137.961,230.219,160.804,221.707C183.507,213.246,211.595,200.705,225.126,186.797C234.785,176.867,242.334,163.667,242.009,153.535C241.728,144.733,235.299,136.442,227.684,129.293C217.192,119.442,198.347,111.481,180.031,105.051C157.695,97.209,129.496,92.55,102.176,88.889C72.421,84.901,8.04,83.066,8.04,83.066" stroke="rgba(231,225,214,0.07)" stroke-width="3" fill="none" stroke-linecap="round" stroke-miterlimit="4"></path><path d="M663.948,4C663.948,4,661.105,22.83,662.744,32.323C664.53,42.673,667.934,52.828,675.377,63.559C686.357,79.389,708.075,99.728,729.418,113.131C752.926,127.894,782.352,138.756,812.06,146.061C844.348,154,876.645,156.869,916.583,156.868C970.207,156.866,1041.803,147.94,1105.02,137.374C1170.418,126.442,1254.593,109.083,1302.513,91.516C1331.944,80.726,1358.032,69.466,1370.537,56.566C1377.945,48.924,1381.267,40.871,1382.054,32.323C1382.876,23.392,1374.522,4,1374.522,4" stroke="rgba(231,225,214,0.07)" stroke-width="3" fill="none" stroke-linecap="round" stroke-miterlimit="4"></path><path d="M1596,698.583C1596,698.583,1536.631,675.97,1510.06,662.626C1485.542,650.314,1459.952,636.021,1441.808,622.222C1427.896,611.642,1415.836,601.625,1408.197,589.899C1401.634,579.827,1397.019,567.663,1396.398,557.576C1395.87,548.998,1398.239,541.238,1401.999,533.333C1406.42,524.038,1411.854,516.393,1423.116,506.177C1446.298,485.146,1523.706,448.445,1546.341,428.283C1556.804,418.962,1562.948,413.352,1565.909,404.04C1568.928,394.546,1567.296,385.164,1563.855,371.717C1557.344,346.271,1522.421,296.949,1514.717,266.667C1509.331,245.498,1510.041,228.153,1511.278,210.101C1512.432,193.239,1516.222,175.516,1520.978,161.616C1524.862,150.263,1529.162,140.633,1535.678,132.084C1542.133,123.617,1550.347,116.342,1559.799,110.496C1570.167,104.084,1596,96.13,1596,96.13" stroke="rgba(231,225,214,0.07)" stroke-width="3" fill="none" stroke-linecap="round" stroke-miterlimit="4"></path><path d="M4,263.268C4,263.268,71.525,270.021,104.523,267.278C137.183,264.564,169.687,257.761,201.005,247.146C233.209,236.232,274.328,216.386,294.943,202.02C306.864,193.713,314.634,186.62,319.976,177.778C324.524,170.249,328.307,161.978,327.091,153.535C325.564,142.93,316.639,129.668,305.528,120.004C290.363,106.815,263.428,96.963,238.106,88.889C208.256,79.371,172.648,74.237,136.683,69.912C96.496,65.078,8.04,62.904,8.04,62.904" stroke="rgba(231,225,214,0.07)" stroke-width="3" fill="none" stroke-linecap="round" stroke-miterlimit="4"></path><path d="M1596,719.751C1596,719.751,1463.8,662.996,1424.749,638.384C1402.032,624.066,1386.541,611.864,1374.905,597.98C1366.075,587.445,1359.856,575.988,1357.015,565.657C1354.713,557.285,1354.547,549.864,1356.258,541.414C1358.331,531.181,1361.885,521.339,1371.116,509.091C1389.19,485.11,1452.819,445.537,1474.545,420.202C1487.381,405.235,1496.195,393.047,1499.702,379.798C1502.594,368.875,1500.815,360.468,1498.432,347.475C1494.563,326.384,1478.149,294.54,1471.339,266.667C1464.342,238.027,1466.006,201.543,1457.38,177.778C1450.888,159.894,1442.277,143.291,1431.156,134.088C1422.036,126.542,1411.01,124.533,1398.995,122.265C1384.737,119.574,1374.359,119.798,1350.754,121.259C1284.346,125.369,1055.12,167.791,972.864,176.247C933.242,180.319,913.199,181.656,884.422,181.592C856.981,181.532,831.222,180.95,804.02,176.378C774.996,171.499,742.78,164.006,715.578,152.062C689.336,140.54,661.321,124.521,643.216,106.778C628.037,91.902,615.162,74.321,610.366,56.566C605.873,39.936,613.081,4,613.081,4" stroke="rgba(231,225,214,0.07)" stroke-width="3" fill="none" stroke-linecap="round" stroke-miterlimit="4"></path><path d="M1596,57.068C1596,57.068,1537.001,55.243,1511.558,45.953C1487.236,37.072,1446.007,4,1446.007,4" stroke="rgba(231,225,214,0.07)" stroke-width="3" fill="none" stroke-linecap="round" stroke-miterlimit="4"></path><path d="M4,288.323C4,288.323,82.941,301.316,120.603,299.324C156.541,297.423,187.153,289.881,225.126,278.161C273.799,263.139,351.129,230.809,386.582,210.101C406.049,198.73,418.859,189.863,428.371,177.778C436.16,167.882,443.275,155.359,442.853,145.455C442.48,136.693,435.828,127.824,429.411,121.212C422.554,114.148,414.629,110.591,402.208,105.051C379.228,94.8,335.604,81.241,298.831,72.727C258.312,63.347,214.603,57.34,168.844,52.82C118.218,47.819,8.04,45.584,8.04,45.584" stroke="rgba(231,225,214,0.07)" stroke-width="3" fill="none" stroke-linecap="round" stroke-miterlimit="4"></path><path d="M1596,739.959C1596,739.959,1444.077,673.144,1399.981,646.465C1375.421,631.605,1359.414,619.883,1346.071,606.061C1335.869,595.493,1328.086,585.062,1323.579,573.737C1319.472,563.42,1317.771,552.077,1318.707,541.414C1319.664,530.523,1321.893,521.904,1329.589,509.091C1345.431,482.714,1409.958,432.168,1428.838,404.04C1439.298,388.458,1444.8,377.419,1447.139,363.636C1449.376,350.456,1446.6,339.419,1443.531,323.232C1438.686,297.683,1427.278,252.008,1415.042,226.263C1405.872,206.968,1396.098,190.01,1382.915,179.464C1371.401,170.254,1357.994,166.81,1342.714,163.396C1324.072,159.231,1308.78,158.614,1278.392,159.571C1203.743,161.922,978.331,201.158,892.462,207.024C849.687,209.947,826.619,210.092,795.98,208.383C767.901,206.817,743.811,204.595,715.578,198.238C682.682,190.831,641.711,178.047,611.055,163.9C584.585,151.684,553.944,138.106,541.006,121.212C531.739,109.111,528.578,96.294,529.23,80.808C530.142,59.151,558.827,4,558.827,4" stroke="rgba(231,225,214,0.07)" stroke-width="3" fill="none" stroke-linecap="round" stroke-miterlimit="4"></path><path d="M1596,25.996L1524.84,4" stroke="rgba(231,225,214,0.07)" stroke-width="3" fill="none" stroke-linecap="round" stroke-miterlimit="4"></path><path d="M4,315.293C4,315.293,75.625,338.079,104.523,342.953C125.777,346.538,136.586,350.155,160.804,346.655C208.932,339.7,306.99,288.261,369.849,269.701C419.701,254.983,451.819,244.802,506.533,238.927C586.261,230.366,699.69,247.459,804.02,241.167C920.826,234.122,1098.169,200.105,1173.869,193.564C1207.233,190.681,1223.653,189.57,1246.231,190.351C1266.198,191.042,1286.487,192.693,1302.513,196.77C1315.202,199.999,1325.713,203.803,1335.437,210.101C1345.091,216.354,1353.302,224.034,1360.702,234.343C1369.853,247.095,1377.492,265.136,1383.467,282.828C1390.105,302.487,1398.508,327.612,1397.406,347.475C1396.437,364.94,1391.166,377.443,1381.163,395.96C1364.375,427.036,1305.628,479.542,1292.024,509.091C1284.749,524.893,1283.459,536.842,1284.02,549.495C1284.527,560.936,1288.076,571.558,1293.461,581.818C1299.45,593.229,1308.351,603.55,1319.735,614.141C1334.543,627.919,1351.234,639.147,1377.489,654.545C1426.21,683.12,1596,760.212,1596,760.212" stroke="rgba(231,225,214,0.07)" stroke-width="3" fill="none" stroke-linecap="round" stroke-miterlimit="4"></path><path d="M496.258,4C496.258,4,467.654,27.221,450.251,34.391C431.269,42.212,416.488,44.969,385.93,47.287C312.547,52.855,8.04,29.732,8.04,29.732" stroke="rgba(231,225,214,0.07)" stroke-width="3" fill="none" stroke-linecap="round" stroke-miterlimit="4"></path><path d="M410.05,4.46C410.05,4.46,349.409,16.36,305.528,19.089C231.851,23.672,8.04,14.682,8.04,14.682" stroke="rgba(231,225,214,0.07)" stroke-width="3" fill="none" stroke-linecap="round" stroke-miterlimit="4"></path><path d="M4,349.553C4,349.553,26.924,363.35,35.108,371.717C42.278,379.047,48.066,384.62,51.587,395.96C57.719,415.707,47.968,462.824,52.043,484.848C54.583,498.579,57.098,508.06,64.238,517.172C72.183,527.312,85.794,536.514,99.499,541.414C114.816,546.891,134.874,547.276,152.764,545.923C171.379,544.515,191.375,539.828,209.045,532.424C226.933,524.929,246.472,513.882,259.356,501.01C270.906,489.471,279.408,476.818,284.637,460.606C291.104,440.559,284.939,405.337,289.369,387.879C292.05,377.313,294.333,371.574,300.546,363.636C309.195,352.585,325.328,340.411,340.953,331.313C358.566,321.059,378.954,313.447,402.01,306.94C430.145,298.999,456.949,295.153,498.492,290.34C572.909,281.719,707.111,282.282,812.06,271.411C918.821,260.353,1064.579,230.705,1133.668,224.077C1166.282,220.948,1184.384,219.866,1206.03,220.806C1223.773,221.577,1239.466,223.272,1254.271,227.211C1267.727,230.791,1280.766,235.52,1291.48,242.424C1301.521,248.895,1309.972,257.457,1317.153,266.667C1324.39,275.947,1330.122,286.454,1334.673,297.948C1339.641,310.493,1344.769,325.012,1344.974,339.394C1345.195,354.897,1342.229,368.92,1334.381,387.879C1321.017,420.168,1268.045,478.545,1256.725,509.091C1250.698,525.353,1249.728,536.183,1251.03,549.495C1252.363,563.126,1257.89,577.834,1265.094,589.899C1272.386,602.111,1282.994,612.081,1294.703,622.222C1308.1,633.825,1319.412,641.211,1342.116,654.545C1392.613,684.204,1596,781.516,1596,781.516" stroke="rgba(231,225,214,0.07)" stroke-width="3" fill="none" stroke-linecap="round" stroke-miterlimit="4"></path><path d="M4.026,509.091C4.026,509.091,12.494,538.584,20.89,549.495C28.898,559.902,39.862,568.089,52.489,573.737C67.049,580.25,86.197,582.745,104.523,583.571C124.766,584.483,147.006,581.756,168.844,577.332C192.498,572.54,219.156,564.693,241.206,554.704C261.767,545.39,281.617,533.99,297.487,520.381C312.253,507.72,322.674,495.102,334.279,476.768C350.03,451.885,361.693,401.598,377.889,381.14C387.967,368.411,398.21,362.977,410.05,356.213C422.26,349.238,434.641,344.726,450.251,340.214C470.612,334.33,490.207,331.278,522.613,326.75C587.674,317.659,721.426,310.61,817.988,298.99C911.474,287.74,1021.346,263.356,1093.116,258.586C1138.851,255.546,1175.658,252.077,1206.03,260.063C1228.932,266.084,1248.62,276.153,1262.341,290.909C1275.844,305.431,1285.677,329.855,1288.178,347.475C1290.205,361.754,1287.328,371.086,1282.219,387.879C1272.654,419.321,1228.25,485.664,1220.686,517.172C1216.667,533.911,1217.019,544.389,1219.593,557.576C1222.281,571.351,1227.123,584.605,1237.274,597.98C1251.73,617.025,1274.397,633.363,1306.544,654.545C1366.014,693.732,1577.941,796,1577.941,796" stroke="rgba(231,225,214,0.07)" stroke-width="3" fill="none" stroke-linecap="round" stroke-miterlimit="4"></path><path d="M4,603.335C4,603.335,31.902,615.206,48.241,617.473C67.475,620.143,89.861,618.039,112.563,615.317C138.668,612.187,168.892,605.714,195.883,597.98C222.47,590.361,248.128,582.607,273.367,569.431C300.868,555.074,328.888,537.869,353.769,513.325C383.269,484.224,404.72,426.487,434.171,401.381C456.736,382.146,470.143,376.247,506.533,365.178C597.949,337.37,902.187,309.405,1013.065,300.66C1066.964,296.41,1103.107,294.106,1133.668,296.954C1152.76,298.733,1166.897,301.854,1179.658,307.071C1189.918,311.265,1198.033,315.349,1205.456,323.232C1214.583,332.926,1224.444,349.709,1227.502,363.636C1230.369,376.7,1227.896,386.99,1224.778,404.04C1219.081,435.185,1188.187,502.222,1185.562,533.333C1184.12,550.415,1186.605,561.382,1190.685,573.737C1194.578,585.525,1199.538,595.132,1208.84,606.061C1222.319,621.898,1241.143,635.73,1269.753,654.545C1325.901,691.473,1534.163,796,1534.163,796" stroke="rgba(231,225,214,0.07)" stroke-width="3" fill="none" stroke-linecap="round" stroke-miterlimit="4"></path><path d="M4,667.942C4,667.942,130.276,643.032,184.925,626.353C232.007,611.983,277.654,596.145,313.568,576.972C342.549,561.499,362.714,547.182,386.9,525.253C416.442,498.467,445.249,447.055,474.372,423.904C495.831,406.846,515.225,398.62,538.693,390.046C564.145,380.746,589.17,377.413,622.203,371.717C669.483,363.565,731.841,355.792,795.98,349.807C874.993,342.433,1000.904,328.227,1061.307,333.689C1093.287,336.581,1115.23,340.629,1133.668,351.476C1148.722,360.332,1161.517,374.285,1167.465,387.879C1172.837,400.157,1171.217,411.253,1170.567,428.283C1169.436,457.909,1151.213,522.017,1151.889,549.495C1152.239,563.747,1154.393,571.393,1158.511,581.818C1162.925,592.994,1168.907,603.606,1178.339,614.141C1190.769,628.025,1205.37,638.316,1230.336,654.545C1283.563,689.146,1494.111,796,1494.111,796" stroke="rgba(231,225,214,0.07)" stroke-width="3" fill="none" stroke-linecap="round" stroke-miterlimit="4"></path><path d="M60.319,796C60.319,796,48.911,776.993,46.551,767.677C44.479,759.499,42.843,752.033,45.489,743.434C49.303,731.042,57.465,717.413,75.621,703.03C120.796,667.244,302.444,612.825,361.809,578.687C391.218,561.775,402.24,551.938,423.508,533.333C450.088,510.083,482.819,466.68,506.533,447.245C521.514,434.967,531.245,428.938,546.734,421.501C565.204,412.633,587.198,405.933,611.055,399.782C639.726,392.391,667.729,387.531,707.538,382.325C771.113,374.012,892.777,361.529,956.784,362.075C996.937,362.418,1031.546,366.227,1054.723,371.717C1068.123,374.892,1076.171,378.077,1085.427,383.523C1094.553,388.893,1103.757,394.961,1109.95,404.04C1117.101,414.522,1120.986,426.87,1123.483,444.444C1127.835,475.071,1113.458,545.324,1118.195,573.737C1120.647,588.448,1125.026,596.491,1130.779,606.061C1136.304,615.253,1142.565,622.265,1151.668,630.303C1163.96,641.156,1178.831,650.503,1200.247,662.626C1237.388,683.652,1312.996,713.308,1358.794,737.878C1395.478,757.558,1455.276,795.928,1455.276,795.928" stroke="rgba(231,225,214,0.07)" stroke-width="3" fill="none" stroke-linecap="round" stroke-miterlimit="4"></path><path d="M851.806,796C851.806,796,820.201,782.903,804.02,779.261C788.181,775.695,775.013,773.248,755.779,774.133C726.651,775.473,646.697,796,646.697,796" stroke="rgba(231,225,214,0.07)" stroke-width="3" fill="none" stroke-linecap="round" stroke-miterlimit="4"></path><path d="M134.37,796C134.37,796,123.157,783.189,120.132,775.758C117.12,768.355,114.467,760.264,116.219,751.515C118.657,739.341,129.7,722.721,141.287,711.111C154.424,697.948,169.377,691.469,193.159,678.788C239.938,653.843,343.91,622.084,408.843,581.818C470.963,543.297,532.897,469.674,576.09,444.444C599.462,430.793,613.692,427.994,635.176,421.55C659.654,414.208,682.812,409.097,715.578,404.149C765.855,396.557,855.267,387.131,908.543,387.391C946.231,387.575,981.712,391.518,1005.025,396.721C1018.862,399.809,1027.37,402.876,1037.186,408.196C1046.859,413.44,1056.655,418.788,1063.572,428.283C1072.183,440.105,1077.565,456.88,1080.666,476.768C1085.268,506.276,1073.497,566.258,1077.319,589.899C1079.144,601.188,1081.66,606.45,1086.172,614.141C1091.195,622.705,1097.596,630.487,1107.045,638.384C1120.378,649.525,1138.147,658.632,1161.922,670.707C1202.274,691.202,1284.277,719.529,1330.363,743.434C1364.498,761.141,1416.209,796,1416.209,796" stroke="rgba(231,225,214,0.07)" stroke-width="3" fill="none" stroke-linecap="round" stroke-miterlimit="4"></path><path d="M917.422,796C917.422,796,869.622,758.027,844.221,747.719C820.941,738.272,796.648,734.33,771.859,733.958C745.798,733.567,720.465,738.686,691.457,746.762C654.784,756.973,570.854,795.654,570.854,795.654" stroke="rgba(231,225,214,0.07)" stroke-width="3" fill="none" stroke-linecap="round" stroke-miterlimit="4"></path><path d="M214.933,796C214.933,796,198.351,785.051,192.965,778.456C188.29,772.732,184.423,766.471,183.318,759.596C182.13,752.197,183.624,742.982,187.089,735.354C191.025,726.689,198.185,719.013,207.443,711.111C220.483,699.981,237.306,691.423,261.283,678.788C305.5,655.487,396.629,626.016,455.46,589.899C511.638,555.41,558.273,495.986,607.869,468.687C647.211,447.032,681.776,437.721,723.618,428.461C770.456,418.096,831.307,412.513,876.382,412.96C912.243,413.316,949.697,418.024,972.864,424.689C986.873,428.72,996.053,433.367,1005.025,439.802C1013.11,445.602,1020.114,451.335,1025.02,460.606C1031.449,472.755,1034.945,489.809,1035.246,509.091C1035.688,537.387,1015.256,591.509,1016.491,614.141C1017.092,625.154,1019.734,631.842,1023.611,638.384C1026.993,644.089,1028.937,646.725,1037.186,651.986C1066.826,670.894,1209,708.559,1270.352,736.895C1312.975,756.581,1374.518,796,1374.518,796" stroke="rgba(231,225,214,0.07)" stroke-width="3" fill="none" stroke-linecap="round" stroke-miterlimit="4"></path><path d="M971.819,796C971.819,796,923.166,721.037,900.503,704.029C886.69,693.664,875.102,691.724,860.302,688.142C843.373,684.044,825.942,681.83,804.02,682.572C772.878,683.626,733.327,688.348,691.457,701.467C633.132,719.742,491.162,796,491.162,796" stroke="rgba(231,225,214,0.07)" stroke-width="3" fill="none" stroke-linecap="round" stroke-miterlimit="4"></path><path d="M1026.576,796C1026.576,796,1014.41,770.336,1015.338,759.596C1016.122,750.519,1021.511,741.488,1027.707,735.354C1034.052,729.07,1043.493,725.454,1053.266,722.629C1064.893,719.268,1076.292,717.812,1093.467,718.559C1124.662,719.914,1189.853,733.111,1224.409,743.434C1248.227,750.55,1265.202,758.389,1282.906,767.677C1298.957,776.098,1326.633,795.916,1326.633,795.916" stroke="rgba(231,225,214,0.07)" stroke-width="3" fill="none" stroke-linecap="round" stroke-miterlimit="4"></path><path d="M270.307,719.192C278.544,710.022,287.93,704.657,305.383,694.949C347.278,671.648,470.437,634.351,530.653,596.932C577.488,567.829,610.685,523.486,644.166,501.01C667.385,485.423,684.057,476.719,707.538,467.951C734.02,458.063,766.296,450.795,795.98,446.882C825.263,443.023,857.727,441.342,884.422,444.384C907.174,446.977,930.819,450.967,946.608,460.606C959.578,468.525,970.966,482.143,975.52,492.929C978.928,501.003,978.471,508.66,977.199,517.172C975.682,527.329,972.145,538.759,964.824,549.486C954.771,564.219,933.765,583.144,916.583,593.435C901.367,602.549,889.055,605.433,868.342,610.525C833.334,619.131,760.502,623.6,723.618,631.159C700.33,635.931,684.997,639.295,667.337,646.289C650.224,653.067,637.251,660.411,619.095,672.118C592.52,689.254,553.28,726.627,526.032,743.434C506.964,755.196,493.441,761.62,474.372,768.487C452.651,776.308,426.307,782.99,402.01,786.174C378.061,789.312,352.021,790.823,329.648,787.686C309.465,784.855,285.567,779.839,273.367,770.303C264.461,763.341,257.339,752.217,257.138,743.434C256.95,735.201,263.682,726.568,270.307,719.192" stroke="rgba(231,225,214,0.07)" stroke-width="3" fill="none" stroke-linecap="round" stroke-miterlimit="4"></path><path d="M828.141,504.429C835.757,504.07,844.474,505.964,847.994,509.091C850.279,511.121,852.093,514.597,850.932,517.172C848.373,522.846,823.337,532.086,812.06,532.462C803.554,532.746,791.87,529.045,789.41,525.253C787.97,523.034,788.337,519.624,790.314,517.172C794.696,511.739,817.486,504.932,828.141,504.429" stroke="rgba(231,225,214,0.07)" stroke-width="3" fill="none" stroke-linecap="round" stroke-miterlimit="4"></path><path d="M1095.959,796C1095.959,796,1092.846,787.89,1094.056,783.838C1095.667,778.447,1101.702,771.507,1108.689,767.677C1118.345,762.383,1134.538,760.663,1149.749,760.718C1168.799,760.786,1194.71,765.641,1214.07,772.097C1231.498,777.907,1261.295,796,1261.295,796" stroke="rgba(231,225,214,0.07)" stroke-width="3" fill="none" stroke-linecap="round" stroke-miterlimit="4"></path></svg>