<svg xmlns="http://www.w3.org/2000/svg" width="1600" height="800" viewBox="0 0 1600 800"><path d="M1032.393,4C1032.393,4,1039.046,13.701,1037.186,17.229C1033.99,23.29,1009.769,28.068,996.985,27.613C985.086,27.189,964.735,21.536,962.889,16.162C961.713,12.739,970.942,4,970.942,4" stroke="rgba(102,102,102,0.15)" stroke-width="3" fill="none" stroke-linecap="round" stroke-miterlimit="4"></path><path d="M879.247,4C879.247,4,876.524,17.884,879.596,24.242C883.775,32.892,895.465,41.953,908.543,48.032C927.861,57.011,964.455,61.692,988.945,62.854C1009.302,63.821,1027.348,61.296,1045.226,57.92C1062.092,54.736,1079.903,50.173,1093.467,43.746C1104.716,38.416,1116.932,32.007,1122.023,24.242C1125.954,18.248,1125.9,4,1125.9,4" stroke="rgba(102,102,102,0.15)" stroke-width="3" fill="none" stroke-linecap="round" stroke-miterlimit="4"></path><path d="M828.141,4.27C828.141,4.27,827.695,23.691,832.626,32.323C838.924,43.351,854.751,54.351,868.342,61.887C882.574,69.778,899.12,74.275,916.583,77.933C936.267,82.055,958.27,83.862,980.905,83.852C1006.212,83.84,1035.652,81.163,1061.307,76.377C1085.643,71.838,1111.871,65.183,1131.222,56.566C1146.536,49.746,1161.829,42.377,1169.736,32.323C1176.142,24.177,1179.244,4,1179.244,4" stroke="rgba(102,102,102,0.15)" stroke-width="3" fill="none" stroke-linecap="round" stroke-miterlimit="4"></path><path d="M786.598,4C786.598,4,787.982,29.484,794.694,40.404C802.747,53.505,819.878,65.481,836.181,74.462C854.498,84.552,878.147,91.231,900.503,95.752C923.643,100.432,947.021,101.697,972.864,101.512C1002.725,101.299,1038.108,97.998,1069.347,92.443C1099.698,87.046,1132.813,79.162,1157.789,69.084C1177.826,60.999,1198.33,49.685,1209.203,40.404C1215.628,34.919,1219.373,30.324,1221.913,24.242C1224.442,18.184,1224.449,4,1224.449,4" stroke="rgba(102,102,102,0.15)" stroke-width="3" fill="none" stroke-linecap="round" stroke-miterlimit="4"></path><path d="M1596,630.055C1596,630.055,1567.676,615.214,1558.676,606.061C1551.46,598.722,1543.608,589.882,1543.663,581.818C1543.718,573.72,1551.46,563.463,1559.138,557.576C1568.039,550.75,1596,545.941,1596,545.941" stroke="rgba(102,102,102,0.15)" stroke-width="3" fill="none" stroke-linecap="round" stroke-miterlimit="4"></path><path d="M4,163.769C4,163.769,23.755,164.727,26.994,161.616C28.919,159.768,29.494,155.501,28.081,153.535C25.845,150.426,8.04,149.674,8.04,149.674" stroke="rgba(102,102,102,0.15)" stroke-width="3" fill="none" stroke-linecap="round" stroke-miterlimit="4"></path><path d="M749.363,4C749.363,4,747.826,17.366,749.362,24.242C751.13,32.153,754.466,40.303,760.769,48.485C769.918,60.361,786.715,74.841,804.02,84.753C824.209,96.316,851.262,105.038,876.382,110.55C902.132,116.2,927.732,117.728,956.784,117.767C991.154,117.813,1032.054,114.06,1069.347,107.967C1107.101,101.798,1150.168,92.432,1181.91,80.768C1206.945,71.569,1231.854,60.027,1246.231,48.323C1255.625,40.676,1262.193,32.424,1265.366,24.242C1267.942,17.597,1266.753,4,1266.753,4" stroke="rgba(102,102,102,0.15)" stroke-width="3" fill="none" stroke-linecap="round" stroke-miterlimit="4"></path><path d="M1596,656.014C1596,656.014,1534.488,627.61,1516.451,614.141C1505.383,605.877,1497.853,598.676,1492.825,589.899C1488.493,582.335,1485.5,573.179,1486.172,565.657C1486.793,558.687,1490.668,552.006,1495.477,546.185C1501.146,539.325,1508.627,533.532,1519.598,528.393C1537.372,520.067,1596,509.653,1596,509.653" stroke="rgba(102,102,102,0.15)" stroke-width="3" fill="none" stroke-linecap="round" stroke-miterlimit="4"></path><path d="M1596,277.84C1596,277.84,1586.739,254.751,1586.501,242.424C1586.242,229.093,1596,200.601,1596,200.601" stroke="rgba(102,102,102,0.15)" stroke-width="3" fill="none" stroke-linecap="round" stroke-miterlimit="4"></path><path d="M4,205.843C4,205.843,73.94,203.187,96.482,197.456C110.328,193.936,119.828,189.963,128.643,183.573C136.706,177.728,146.208,168.845,148.049,161.616C149.433,156.178,147.906,150.442,144.348,145.455C139.002,137.961,126.941,130.974,112.563,125.684C88.403,116.795,8.04,110.03,8.04,110.03" stroke="rgba(102,102,102,0.15)" stroke-width="3" fill="none" stroke-linecap="round" stroke-miterlimit="4"></path><path d="M714.459,4C714.459,4,715.573,35.333,723.618,49.427C733.583,66.884,755.926,84.572,776.493,96.97C798.408,110.181,825.617,118.766,852.261,124.852C880.214,131.236,908.021,133.295,940.704,133.409C981.32,133.551,1032.033,128.472,1077.387,121.148C1123.365,113.722,1175.917,103.112,1214.682,88.889C1245.436,77.605,1278.371,62.412,1293.727,48.485C1302.473,40.553,1307.017,32.305,1309.268,24.242C1311.155,17.482,1308.75,4,1308.75,4" stroke="rgba(102,102,102,0.15)" stroke-width="3" fill="none" stroke-linecap="round" stroke-miterlimit="4"></path><path d="M1596,674.909C1596,674.909,1513.82,639.526,1488.844,622.222C1473.145,611.346,1461.75,600.742,1454.479,589.899C1449.085,581.856,1445.385,574.211,1445.202,565.657C1444.999,556.193,1449.137,544.485,1455.276,535.529C1462.289,525.299,1474.825,516.624,1487.203,509.091C1501.156,500.599,1518.358,493.98,1535.678,488.492C1554.425,482.551,1596,475.512,1596,475.512" stroke="rgba(102,102,102,0.15)" stroke-width="3" fill="none" stroke-linecap="round" stroke-miterlimit="4"></path><path d="M1596,326.566C1596,326.566,1572.371,298.514,1565.553,282.828C1558.976,267.696,1554.797,250.467,1555.122,234.343C1555.448,218.143,1560.567,200.263,1567.616,185.859C1574.404,171.99,1596,149.139,1596,149.139" stroke="rgba(102,102,102,0.15)" stroke-width="3" fill="none" stroke-linecap="round" stroke-miterlimit="4"></path><path d="M4,227.893C4,227.893,56.169,230.224,80.402,227.502C102.907,224.973,124.943,220.518,144.724,213.209C163.315,206.34,184.541,197.479,196.099,185.859C205.253,176.655,213.638,163.385,213.084,153.535C212.588,144.713,204.705,136.128,196.635,129.293C186.275,120.519,172.183,114.675,152.764,109.132C119.01,99.497,8.04,90.896,8.04,90.896" stroke="rgba(102,102,102,0.15)" stroke-width="3" fill="none" stroke-linecap="round" stroke-miterlimit="4"></path><path d="M680.691,4C680.691,4,678.762,23.411,680.478,32.323C682.129,40.893,684.218,47.731,690.387,56.566C701.008,71.776,725.53,95.238,747.739,108.898C771.114,123.275,799.647,132.757,828.141,139.452C858.393,146.561,887.629,149.027,924.623,148.98C974.72,148.916,1043.154,141.051,1101.508,131.06C1160.016,121.042,1230.925,106.433,1275.2,88.889C1305.159,77.018,1334.066,62.474,1346.365,48.485C1353.323,40.571,1355.55,32.066,1356.271,24.242C1356.912,17.292,1352.081,4,1352.081,4" stroke="rgba(102,102,102,0.15)" stroke-width="3" fill="none" stroke-linecap="round" stroke-miterlimit="4"></path><path d="M1596,691.084C1596,691.084,1549.295,673.832,1526.453,662.626C1502.768,651.007,1474.992,636.08,1456.495,622.222C1442.416,611.674,1430.178,601.662,1422.638,589.899C1416.196,579.847,1411.388,568.234,1411.518,557.576C1411.645,547.055,1417.044,535.614,1423.116,526.351C1429.476,516.648,1436.184,510.722,1449.458,501.01C1477.808,480.268,1596,421.476,1596,421.476" stroke="rgba(102,102,102,0.15)" stroke-width="3" fill="none" stroke-linecap="round" stroke-miterlimit="4"></path><path d="M1596,385.171C1596,385.171,1549.953,319.19,1538.356,290.909C1529.948,270.403,1526.068,251.692,1525.148,234.343C1524.377,219.819,1526.737,207.189,1530.156,193.939C1533.692,180.238,1539.547,164.837,1546.375,153.535C1552.214,143.871,1558.902,136.165,1567.011,129.293C1575.367,122.211,1596,111.896,1596,111.896" stroke="rgba(102,102,102,0.15)" stroke-width="3" fill="none" stroke-linecap="round" stroke-miterlimit="4"></path><path d="M4,246.269C4,246.269,66.902,250.389,96.482,247.33C124.393,244.444,151.634,238.667,176.884,229.558C201.443,220.698,230.89,205.729,246.161,193.939C255.432,186.782,261.382,179.985,265.327,172.559C268.587,166.422,271.38,160.39,270.097,153.535C268.276,143.797,258.148,130.088,247.238,121.212C233.726,110.219,212.601,103.375,191.56,96.97C166.163,89.238,134.397,84.609,104.523,81.096C73.303,77.425,8.04,75.907,8.04,75.907" stroke="rgba(102,102,102,0.15)" stroke-width="3" fill="none" stroke-linecap="round" stroke-miterlimit="4"></path><path d="M647.165,4C647.165,4,643.576,22.699,644.768,32.323C646.076,42.877,648.872,53.512,655.878,64.646C666.086,80.869,686.407,101.484,707.538,115.606C731.844,131.849,764.641,144.738,795.98,152.963C828.785,161.572,859.669,164.656,900.503,164.894C958.214,165.23,1037.415,155.166,1109.548,143.495C1188.472,130.726,1309.436,103.635,1355.121,88.889C1373.554,82.939,1383.112,79.108,1392.753,72.727C1400.035,67.907,1406.449,63.206,1409.632,56.566C1412.879,49.79,1413.29,40.497,1411.739,32.323C1409.972,23.003,1397.652,4,1397.652,4" stroke="rgba(102,102,102,0.15)" stroke-width="3" fill="none" stroke-linecap="round" stroke-miterlimit="4"></path><path d="M1596,705.819C1596,705.819,1537.78,683.707,1511.012,670.707C1485.671,658.4,1459.62,645,1439.187,630.303C1421.714,617.734,1403.978,603.795,1394.466,589.899C1387.258,579.371,1382.72,568.445,1382.134,557.576C1381.558,546.893,1385.77,534.796,1390.621,525.253C1395.313,516.02,1400.25,510.394,1410.374,501.01C1430.806,482.073,1493.626,447.021,1514.922,428.283C1525.711,418.789,1532.61,414.023,1536.852,404.04C1541.574,392.929,1542.038,380.171,1539.616,363.636C1535.432,335.075,1503.131,287.351,1497.135,250.505C1491.761,217.488,1496.816,177.021,1500.681,153.535C1502.959,139.689,1505.766,129.789,1510.314,121.212C1513.891,114.465,1516.287,109.975,1523.528,105.051C1537.35,95.65,1596,81.912,1596,81.912" stroke="rgba(102,102,102,0.15)" stroke-width="3" fill="none" stroke-linecap="round" stroke-miterlimit="4"></path><path d="M4,263.268C4,263.268,71.525,270.021,104.523,267.278C137.183,264.564,169.687,257.761,201.005,247.146C233.209,236.232,274.328,216.386,294.943,202.02C306.864,193.713,314.634,186.62,319.976,177.778C324.524,170.249,328.307,161.978,327.091,153.535C325.564,142.93,316.639,129.668,305.528,120.004C290.363,106.815,263.428,96.963,238.106,88.889C208.256,79.371,172.648,74.237,136.683,69.912C96.496,65.078,8.04,62.904,8.04,62.904" stroke="rgba(102,102,102,0.15)" stroke-width="3" fill="none" stroke-linecap="round" stroke-miterlimit="4"></path><path d="M1596,719.751C1596,719.751,1463.8,662.996,1424.749,638.384C1402.032,624.066,1386.541,611.864,1374.905,597.98C1366.075,587.445,1359.856,575.988,1357.015,565.657C1354.713,557.285,1354.547,549.864,1356.258,541.414C1358.331,531.181,1361.885,521.339,1371.116,509.091C1389.19,485.11,1452.819,445.537,1474.545,420.202C1487.381,405.235,1496.195,393.047,1499.702,379.798C1502.594,368.875,1500.815,360.468,1498.432,347.475C1494.563,326.384,1478.149,294.54,1471.339,266.667C1464.342,238.027,1466.006,201.543,1457.38,177.778C1450.888,159.894,1442.277,143.291,1431.156,134.088C1422.036,126.542,1411.01,124.533,1398.995,122.265C1384.737,119.574,1374.359,119.798,1350.754,121.259C1284.346,125.369,1055.12,167.791,972.864,176.247C933.242,180.319,913.199,181.656,884.422,181.592C856.981,181.532,831.222,180.95,804.02,176.378C774.996,171.499,742.78,164.006,715.578,152.062C689.336,140.54,661.321,124.521,643.216,106.778C628.037,91.902,615.162,74.321,610.366,56.566C605.873,39.936,613.081,4,613.081,4" stroke="rgba(102,102,102,0.15)" stroke-width="3" fill="none" stroke-linecap="round" stroke-miterlimit="4"></path><path d="M1596,57.068C1596,57.068,1537.001,55.243,1511.558,45.953C1487.236,37.072,1446.007,4,1446.007,4" stroke="rgba(102,102,102,0.15)" stroke-width="3" fill="none" stroke-linecap="round" stroke-miterlimit="4"></path><path d="M4,279.9C4,279.9,76.862,290.256,112.563,288.121C147.88,286.009,180.912,278.809,217.085,267.473C259.018,254.333,318.707,228.729,348.254,210.101C365.616,199.155,378.205,188.814,385.656,177.778C391.021,169.833,394.13,161.583,393.95,153.535C393.768,145.421,389.208,136.089,384.423,129.293C379.778,122.694,374.882,118.653,365.936,113.131C349.239,102.826,316.723,89.452,286.759,80.808C250.116,70.238,204.976,63.607,160.804,58.658C112.498,53.245,8.04,51.152,8.04,51.152" stroke="rgba(102,102,102,0.15)" stroke-width="3" fill="none" stroke-linecap="round" stroke-miterlimit="4"></path><path d="M1596,733.259C1596,733.259,1454.654,671.838,1412.34,646.465C1387.902,631.81,1371.404,619.897,1357.944,606.061C1347.671,595.501,1339.739,585.076,1335.289,573.737C1331.244,563.429,1329.677,552.044,1330.846,541.414C1332.048,530.487,1334.734,521.659,1342.856,509.091C1359.103,483.948,1420.864,438.712,1441.043,412.121C1452.72,396.734,1460.219,385.664,1463.467,371.717C1466.506,358.668,1464.218,348.197,1461.486,331.313C1456.667,301.535,1441.234,239.381,1427.696,210.101C1419.056,191.414,1411.171,177.468,1398.995,167.634C1387.8,158.592,1373.618,154.786,1358.794,151.469C1341.885,147.685,1329.604,147.289,1302.513,148.201C1231.351,150.598,999.978,190.447,916.583,196.822C876.81,199.862,856.88,200.405,828.141,199.234C800.662,198.114,775.014,196.247,747.739,190.46C718.223,184.197,685.09,174.923,657.523,161.616C631.081,148.852,600.947,131.831,585.112,113.131C572.738,98.519,564.873,82.017,563.197,64.646C561.384,45.847,577.538,4,577.538,4" stroke="rgba(102,102,102,0.15)" stroke-width="3" fill="none" stroke-linecap="round" stroke-miterlimit="4"></path><path d="M1596,35.76L1497.634,4" stroke="rgba(102,102,102,0.15)" stroke-width="3" fill="none" stroke-linecap="round" stroke-miterlimit="4"></path><path d="M4,296.949C4,296.949,72.838,311.209,104.523,311.986C132.773,312.679,149.637,312.279,184.925,303.963C259.541,286.38,425.862,183.653,522.613,175.543C592.506,169.684,655.654,205.194,707.538,212.287C744.706,217.368,770.057,219.303,804.02,219.594C841.97,219.919,875.609,217.278,924.623,212.537C1001.886,205.063,1156.51,177.563,1222.111,172.305C1254.324,169.724,1273.159,169.038,1294.472,170.458C1311.529,171.594,1326.666,173.372,1340.25,177.778C1352.183,181.648,1363.302,186.899,1372.17,193.939C1380.509,200.559,1385.946,206.572,1392.487,218.182C1404.258,239.076,1419.575,289.554,1425.546,315.152C1429.312,331.295,1432.67,341.73,1430.82,355.556C1428.718,371.256,1421.993,385.897,1410.556,404.04C1391.831,433.745,1331.496,482.812,1316.727,509.091C1309.494,521.961,1307.645,530.554,1306.905,541.414C1306.176,552.105,1307.924,563.392,1312.085,573.737C1316.665,585.125,1324.467,595.712,1334.673,606.341C1347.9,620.116,1363.294,631.497,1387.842,646.465C1433.558,674.339,1596,746.665,1596,746.665" stroke="rgba(102,102,102,0.15)" stroke-width="3" fill="none" stroke-linecap="round" stroke-miterlimit="4"></path><path d="M539.317,4C539.317,4,507.723,52.748,490.452,65.989C477.596,75.846,469.996,80.532,450.251,83.222C402.147,89.775,271.811,55.57,192.968,48.485C126.393,42.502,8.04,40.147,8.04,40.147" stroke="rgba(102,102,102,0.15)" stroke-width="3" fill="none" stroke-linecap="round" stroke-miterlimit="4"></path><path d="M1596,16.699L1553.077,4" stroke="rgba(102,102,102,0.15)" stroke-width="3" fill="none" stroke-linecap="round" stroke-miterlimit="4"></path><path d="M496.258,4C496.258,4,467.654,27.221,450.251,34.391C431.269,42.212,416.488,44.969,385.93,47.287C312.547,52.855,8.04,29.732,8.04,29.732" stroke="rgba(102,102,102,0.15)" stroke-width="3" fill="none" stroke-linecap="round" stroke-miterlimit="4"></path><path d="M4,315.293C4,315.293,75.625,338.079,104.523,342.953C125.777,346.538,136.586,350.155,160.804,346.655C208.932,339.7,306.99,288.261,369.849,269.701C419.701,254.983,451.819,244.802,506.533,238.927C586.261,230.366,699.69,247.459,804.02,241.167C920.826,234.122,1098.169,200.105,1173.869,193.564C1207.233,190.681,1223.653,189.57,1246.231,190.351C1266.198,191.042,1286.487,192.693,1302.513,196.77C1315.202,199.999,1325.713,203.803,1335.437,210.101C1345.091,216.354,1353.302,224.034,1360.702,234.343C1369.853,247.095,1377.492,265.136,1383.467,282.828C1390.105,302.487,1398.508,327.612,1397.406,347.475C1396.437,364.94,1391.166,377.443,1381.163,395.96C1364.375,427.036,1305.628,479.542,1292.024,509.091C1284.749,524.893,1283.459,536.842,1284.02,549.495C1284.527,560.936,1288.076,571.558,1293.461,581.818C1299.45,593.229,1308.351,603.55,1319.735,614.141C1334.543,627.919,1351.234,639.147,1377.489,654.545C1426.21,683.12,1596,760.212,1596,760.212" stroke="rgba(102,102,102,0.15)" stroke-width="3" fill="none" stroke-linecap="round" stroke-miterlimit="4"></path><path d="M444.149,4C444.149,4,411.396,17.14,393.97,20.959C375.957,24.907,364.289,25.813,337.688,26.924C273.482,29.607,8.04,19.645,8.04,19.645" stroke="rgba(102,102,102,0.15)" stroke-width="3" fill="none" stroke-linecap="round" stroke-miterlimit="4"></path><path d="M4,336.7C4,336.7,41.408,353.758,54.356,363.636C64.258,371.191,72.826,379.088,77.329,387.879C81.2,395.435,81.675,402.07,81.949,412.121C82.396,428.462,71.105,459.143,73.253,476.768C74.821,489.633,79.206,500.737,86.025,509.091C92.536,517.067,101.854,522.746,112.563,526.4C125.798,530.915,144.3,532.174,160.804,530.25C179.047,528.122,201.156,521.575,217.085,512.108C231.917,503.293,246.774,489.416,254.217,476.768C260.224,466.559,261.916,456.795,262.597,444.444C263.488,428.287,251.857,403.779,254.424,387.879C256.465,375.236,262.111,365.375,270.584,355.556C281.167,343.291,298.739,332.833,316.781,323.232C338.633,311.603,365.876,301.243,393.97,293.509C425.78,284.752,453.722,280.498,498.492,275.602C577.473,266.965,718.502,270.157,828.141,259.71C938.27,249.217,1090.356,218.496,1157.789,212.644C1187.433,210.071,1201.735,209.509,1222.111,210.628C1240.726,211.651,1259.67,213.607,1275.293,218.182C1288.565,222.068,1300.564,227.207,1310.553,234.294C1319.863,240.9,1327.054,248.842,1333.883,258.586C1341.78,269.853,1348.95,284.559,1353.771,298.99C1358.817,314.096,1364.024,331.45,1362.962,347.475C1361.882,363.778,1356.274,377.225,1346.911,395.96C1331.534,426.729,1280.081,479.792,1268.312,509.091C1261.899,525.057,1261.121,536.862,1261.928,549.495C1262.661,560.957,1266.062,571.535,1271.374,581.818C1277.251,593.194,1285.793,603.552,1296.949,614.141C1311.469,627.923,1327.47,638.781,1353.881,654.545C1405.829,685.553,1596,774.227,1596,774.227" stroke="rgba(102,102,102,0.15)" stroke-width="3" fill="none" stroke-linecap="round" stroke-miterlimit="4"></path><path d="M368.471,4C368.471,4,313.069,10.529,273.367,12.033C207.169,14.541,8.04,9.769,8.04,9.769" stroke="rgba(102,102,102,0.15)" stroke-width="3" fill="none" stroke-linecap="round" stroke-miterlimit="4"></path><path d="M4,365.383C4,365.383,25.583,387.485,31.132,404.04C38.745,426.76,29.467,470.398,34.222,492.929C37.317,507.595,40.209,518.016,48.241,527.904C57.335,539.1,72.646,549.376,88.442,554.682C106.687,560.81,131.295,560.644,152.764,558.582C174.952,556.45,199.046,550.017,219.418,541.414C238.774,533.24,258.02,522.831,272.488,509.091C286.541,495.743,296.835,480.167,305.528,460.652C316.389,436.267,314.303,392.706,327.239,371.717C336.784,356.23,350.675,348.142,365.184,339.394C380.694,330.043,398.294,323.926,418.09,318.288C441.793,311.539,463.025,308.434,498.492,304.051C566.556,295.641,696.497,293.948,798.435,282.828C905.346,271.166,1044.832,239.217,1125.628,234.491C1172.774,231.734,1212.128,232.625,1238.191,237.851C1252.796,240.779,1261.078,244.494,1271.213,250.505C1281.637,256.688,1291.86,265.31,1299.716,274.747C1307.559,284.17,1313.825,295.31,1318.326,307.071C1323.063,319.446,1327.072,334.028,1326.883,347.475C1326.693,360.964,1323.816,371.428,1317.131,387.879C1304.821,418.17,1255.688,478.671,1245.263,509.091C1239.659,525.444,1238.808,536.184,1240.182,549.495C1241.588,563.128,1246.94,577.822,1254.056,589.899C1261.239,602.091,1271.641,612.086,1283.221,622.222C1296.485,633.834,1307.594,641.071,1330.328,654.545C1382.232,685.309,1596,789.059,1596,789.059" stroke="rgba(102,102,102,0.15)" stroke-width="3" fill="none" stroke-linecap="round" stroke-miterlimit="4"></path><path d="M4.026,509.091C4.026,509.091,12.494,538.584,20.89,549.495C28.898,559.902,39.862,568.089,52.489,573.737C67.049,580.25,86.197,582.745,104.523,583.571C124.766,584.483,147.006,581.756,168.844,577.332C192.498,572.54,219.156,564.693,241.206,554.704C261.767,545.39,281.617,533.99,297.487,520.381C312.253,507.72,322.674,495.102,334.279,476.768C350.03,451.885,361.693,401.598,377.889,381.14C387.967,368.411,398.21,362.977,410.05,356.213C422.26,349.238,434.641,344.726,450.251,340.214C470.612,334.33,490.207,331.278,522.613,326.75C587.674,317.659,721.426,310.61,817.988,298.99C911.474,287.74,1021.346,263.356,1093.116,258.586C1138.851,255.546,1175.658,252.077,1206.03,260.063C1228.932,266.084,1248.62,276.153,1262.341,290.909C1275.844,305.431,1285.677,329.855,1288.178,347.475C1290.205,361.754,1287.328,371.086,1282.219,387.879C1272.654,419.321,1228.25,485.664,1220.686,517.172C1216.667,533.911,1217.019,544.389,1219.593,557.576C1222.281,571.351,1227.123,584.605,1237.274,597.98C1251.73,617.025,1274.397,633.363,1306.544,654.545C1366.014,693.732,1577.941,796,1577.941,796" stroke="rgba(102,102,102,0.15)" stroke-width="3" fill="none" stroke-linecap="round" stroke-miterlimit="4"></path><path d="M4,581.045C4,581.045,25.859,596.88,40.201,601.141C58.099,606.459,81.955,606.783,104.523,605.708C129.898,604.499,158.743,598.928,184.925,592.231C211.003,585.56,236.337,578.408,261.318,565.657C288.936,551.56,317.968,534.221,342.397,509.091C371.252,479.407,396.155,416.145,418.09,393.775C429.76,381.875,438.175,377.878,450.302,371.717C463.82,364.849,471.857,361.283,496.038,355.556C578.319,336.067,940.865,292.89,1053.266,285.278C1101.757,281.994,1127.809,279.102,1157.789,284.255C1181.7,288.365,1205.105,294.21,1220.246,307.071C1234.096,318.835,1244.036,339.6,1247.544,355.556C1250.539,369.174,1248.001,379,1244.309,395.96C1237.506,427.205,1201.923,493.996,1197.281,525.253C1194.764,542.203,1196.362,553.214,1199.464,565.657C1202.375,577.334,1205.836,586.736,1214.471,597.98C1228.059,615.674,1250.715,633.349,1282.22,654.545C1340.426,693.706,1548.193,796,1548.193,796" stroke="rgba(102,102,102,0.15)" stroke-width="3" fill="none" stroke-linecap="round" stroke-miterlimit="4"></path><path d="M4,624.195C4,624.195,31.649,631.165,48.241,631.69C69.37,632.359,95.428,628.47,120.603,624.098C148.764,619.207,181.076,611.276,209.045,602.515C235.27,594.3,259.069,586.804,283.732,573.737C311.192,559.189,339.544,541.542,365.247,517.172C395.634,488.361,420.021,432.119,450.251,407.613C473.273,388.95,487.02,383.122,522.613,372.527C606.417,347.58,855.542,324.971,964.824,315.983C1028.817,310.719,1079.468,305.029,1117.588,310.335C1141.303,313.636,1158.752,318.639,1173.869,328.587C1187.592,337.617,1200.652,351.81,1206.03,365.229C1210.831,377.206,1209.402,387.49,1207.664,404.04C1204.442,434.721,1176.528,502.286,1174.467,533.333C1173.329,550.475,1175.355,561.363,1179.288,573.737C1183.027,585.5,1187.704,595.134,1196.808,606.061C1210.006,621.902,1228.636,635.754,1256.982,654.545C1312.751,691.516,1520.535,796,1520.535,796" stroke="rgba(102,102,102,0.15)" stroke-width="3" fill="none" stroke-linecap="round" stroke-miterlimit="4"></path><path d="M4,667.942C4,667.942,130.276,643.032,184.925,626.353C232.007,611.983,277.654,596.145,313.568,576.972C342.549,561.499,362.714,547.182,386.9,525.253C416.442,498.467,445.249,447.055,474.372,423.904C495.831,406.846,515.225,398.62,538.693,390.046C564.145,380.746,589.17,377.413,622.203,371.717C669.483,363.565,731.841,355.792,795.98,349.807C874.993,342.433,1000.904,328.227,1061.307,333.689C1093.287,336.581,1115.23,340.629,1133.668,351.476C1148.722,360.332,1161.517,374.285,1167.465,387.879C1172.837,400.157,1171.217,411.253,1170.567,428.283C1169.436,457.909,1151.213,522.017,1151.889,549.495C1152.239,563.747,1154.393,571.393,1158.511,581.818C1162.925,592.994,1168.907,603.606,1178.339,614.141C1190.769,628.025,1205.37,638.316,1230.336,654.545C1283.563,689.146,1494.111,796,1494.111,796" stroke="rgba(102,102,102,0.15)" stroke-width="3" fill="none" stroke-linecap="round" stroke-miterlimit="4"></path><path d="M34.133,796C34.133,796,16.313,757.576,16.535,743.434C16.686,733.777,21.001,726.031,25.503,719.192C29.791,712.679,32.296,709.667,42.483,703.03C81.094,677.877,292.582,608.305,353.416,573.737C381.266,557.912,390.388,549.312,410.05,531.626C435.541,508.698,465.871,465.236,490.479,444.444C507.619,429.963,520.833,421.498,538.693,413.035C558.036,403.87,579.188,398.411,603.015,392.602C631.714,385.605,659.006,381.153,699.497,375.972C767.277,367.3,903.471,352.356,972.864,353.001C1015.595,353.398,1051.775,356.947,1076.339,363.636C1090.894,367.6,1100.675,372.717,1109.548,378.841C1116.796,383.843,1122.316,388.291,1126.896,395.96C1132.914,406.038,1136.833,418.868,1138.715,436.364C1142.018,467.062,1126.089,537.15,1129.617,565.657C1131.424,580.26,1134.546,587.713,1140.203,597.98C1146.485,609.38,1151.242,617.325,1166.922,630.303C1211.824,667.467,1468.279,796,1468.279,796" stroke="rgba(102,102,102,0.15)" stroke-width="3" fill="none" stroke-linecap="round" stroke-miterlimit="4"></path><path d="M820.101,795.825C820.101,795.825,778.09,785.976,755.779,785.749C731.654,785.504,680.35,796,680.35,796" stroke="rgba(102,102,102,0.15)" stroke-width="3" fill="none" stroke-linecap="round" stroke-miterlimit="4"></path><path d="M85.361,796C85.361,796,73.366,777.009,71.189,767.677C69.283,759.512,68.314,751.984,71.32,743.434C75.705,730.964,84.738,717.555,103.383,703.03C148.432,667.937,321.861,612.026,377.889,579.248C404.886,563.454,414.438,554.807,434.171,537.774C459.384,516.01,490.935,476.042,514.573,456.766C530.535,443.748,541.854,436.306,558.135,428.283C576.271,419.346,596.646,413.01,619.095,406.95C645.607,399.794,671.129,394.928,707.538,389.879C765.201,381.883,873.278,370.884,932.663,370.72C971.531,370.613,1001.788,371.473,1029.146,378.396C1050.96,383.916,1072.147,391.01,1085.427,403.28C1097.006,413.979,1103.408,426.365,1107.664,444.444C1114.517,473.552,1100.827,538.27,1103.68,565.657C1105.175,580.003,1107.406,588.297,1111.607,597.98C1115.524,607.01,1119.523,613.923,1127.426,622.222C1139.475,634.874,1158.08,647.725,1181.91,661.697C1220.582,684.373,1296.048,711.448,1342.714,736.156C1380.526,756.177,1442.49,796,1442.49,796" stroke="rgba(102,102,102,0.15)" stroke-width="3" fill="none" stroke-linecap="round" stroke-miterlimit="4"></path><path d="M876.382,795.927C876.382,795.927,839.266,775.981,820.101,770.278C801.713,764.807,783.227,762.025,763.819,761.726C743.115,761.407,721.866,764.491,699.497,769.481C673.941,775.182,619.194,796,619.194,796" stroke="rgba(102,102,102,0.15)" stroke-width="3" fill="none" stroke-linecap="round" stroke-miterlimit="4"></path><path d="M134.37,796C134.37,796,123.157,783.189,120.132,775.758C117.12,768.355,114.467,760.264,116.219,751.515C118.657,739.341,129.7,722.721,141.287,711.111C154.424,697.948,169.377,691.469,193.159,678.788C239.938,653.843,343.91,622.084,408.843,581.818C470.963,543.297,532.897,469.674,576.09,444.444C599.462,430.793,613.692,427.994,635.176,421.55C659.654,414.208,682.812,409.097,715.578,404.149C765.855,396.557,855.267,387.131,908.543,387.391C946.231,387.575,981.712,391.518,1005.025,396.721C1018.862,399.809,1027.37,402.876,1037.186,408.196C1046.859,413.44,1056.655,418.788,1063.572,428.283C1072.183,440.105,1077.565,456.88,1080.666,476.768C1085.268,506.276,1073.497,566.258,1077.319,589.899C1079.144,601.188,1081.66,606.45,1086.172,614.141C1091.195,622.705,1097.596,630.487,1107.045,638.384C1120.378,649.525,1138.147,658.632,1161.922,670.707C1202.274,691.202,1284.277,719.529,1330.363,743.434C1364.498,761.141,1416.209,796,1416.209,796" stroke="rgba(102,102,102,0.15)" stroke-width="3" fill="none" stroke-linecap="round" stroke-miterlimit="4"></path><path d="M917.422,796C917.422,796,869.622,758.027,844.221,747.719C820.941,738.272,796.648,734.33,771.859,733.958C745.798,733.567,720.465,738.686,691.457,746.762C654.784,756.973,570.854,795.654,570.854,795.654" stroke="rgba(102,102,102,0.15)" stroke-width="3" fill="none" stroke-linecap="round" stroke-miterlimit="4"></path><path d="M185.885,796C185.885,796,170.619,783.445,166.369,775.758C162.363,768.512,158.974,760.301,160.362,751.515C162.278,739.389,173.812,722.7,185.483,711.111C198.797,697.891,214.611,691.353,238.298,678.788C282.434,655.375,373.949,626.716,434.048,589.899C493.08,553.736,555.127,485.137,596.236,460.606C618.311,447.433,631.661,443.719,651.256,437.15C672.479,430.035,691.485,424.994,719.34,420.202C762.168,412.834,836.749,403.955,884.422,404.179C920.885,404.349,957.256,408.509,980.905,414.456C995.443,418.112,1005.171,422.22,1014.868,428.283C1023.635,433.764,1031.388,439.292,1037.186,448.29C1044.431,459.533,1049.195,474.402,1051.234,492.929C1054.411,521.789,1034.933,578.614,1041.525,606.061C1045.792,623.831,1055.306,635.782,1066.688,646.465C1078.488,657.54,1091.141,661.261,1111.742,670.707C1152.788,689.528,1251.072,718.915,1301.369,743.434C1337.028,760.817,1388.876,796,1388.876,796" stroke="rgba(102,102,102,0.15)" stroke-width="3" fill="none" stroke-linecap="round" stroke-miterlimit="4"></path><path d="M954.102,796C954.102,796,899.459,735.272,876.382,720.793C861.861,711.682,850.411,709.301,836.181,706.04C821.04,702.571,806.725,700.576,787.94,701.258C761.242,702.227,727.422,706.875,691.457,717.96C641.538,733.344,519.711,796,519.711,796" stroke="rgba(102,102,102,0.15)" stroke-width="3" fill="none" stroke-linecap="round" stroke-miterlimit="4"></path><path d="M248.986,796C248.986,796,223.992,784.1,216.737,775.758C210.677,768.789,205.779,760.153,205.872,751.515C205.98,741.491,213.642,728.425,221.203,719.192C229.25,709.365,237.366,704.618,253.674,694.949C292.791,671.759,405.373,635.123,465.687,597.98C516.904,566.439,561.547,517.044,596.935,492.929C618.922,477.946,631.39,469.849,653.213,460.606C680.079,449.228,713.994,439.796,747.739,433.433C785.186,426.372,830.196,421.261,868.342,422.205C902.969,423.062,944.668,428.646,967.142,436.364C979.98,440.772,987.662,445.593,995.418,452.525C1002.865,459.182,1009.556,466.304,1013.141,476.768C1018.063,491.132,1018.495,512.016,1014.777,533.333C1009.527,563.439,978.332,614.554,973.52,638.384C971.169,650.021,966.445,656.912,972.864,665.292C992.682,691.166,1162.458,706.497,1222.111,726.071C1256.874,737.479,1278.507,747.041,1302.529,759.596C1323.696,770.659,1359.546,796,1359.546,796" stroke="rgba(102,102,102,0.15)" stroke-width="3" fill="none" stroke-linecap="round" stroke-miterlimit="4"></path><path d="M989.576,796C989.576,796,970.119,768.809,964.487,751.515C957.743,730.808,961.479,690.07,956,678.788C953.952,674.57,953.215,673.649,948.744,671.569C933.886,664.658,870.565,661.971,836.181,661.651C807.143,661.381,780.926,663.281,755.779,667.229C732.979,670.808,716.805,673.291,691.457,683.118C650.006,699.188,579.314,748.09,535.758,767.677C506.055,781.034,458.291,795.751,458.291,795.751" stroke="rgba(102,102,102,0.15)" stroke-width="3" fill="none" stroke-linecap="round" stroke-miterlimit="4"></path><path d="M1026.576,796C1026.576,796,1014.41,770.336,1015.338,759.596C1016.122,750.519,1021.511,741.488,1027.707,735.354C1034.052,729.07,1043.493,725.454,1053.266,722.629C1064.893,719.268,1076.292,717.812,1093.467,718.559C1124.662,719.914,1189.853,733.111,1224.409,743.434C1248.227,750.55,1265.202,758.389,1282.906,767.677C1298.957,776.098,1326.633,795.916,1326.633,795.916" stroke="rgba(102,102,102,0.15)" stroke-width="3" fill="none" stroke-linecap="round" stroke-miterlimit="4"></path><path d="M270.307,719.192C278.544,710.022,287.93,704.657,305.383,694.949C347.278,671.648,470.437,634.351,530.653,596.932C577.488,567.829,610.685,523.486,644.166,501.01C667.385,485.423,684.057,476.719,707.538,467.951C734.02,458.063,766.296,450.795,795.98,446.882C825.263,443.023,857.727,441.342,884.422,444.384C907.174,446.977,930.819,450.967,946.608,460.606C959.578,468.525,970.966,482.143,975.52,492.929C978.928,501.003,978.471,508.66,977.199,517.172C975.682,527.329,972.145,538.759,964.824,549.486C954.771,564.219,933.765,583.144,916.583,593.435C901.367,602.549,889.055,605.433,868.342,610.525C833.334,619.131,760.502,623.6,723.618,631.159C700.33,635.931,684.997,639.295,667.337,646.289C650.224,653.067,637.251,660.411,619.095,672.118C592.52,689.254,553.28,726.627,526.032,743.434C506.964,755.196,493.441,761.62,474.372,768.487C452.651,776.308,426.307,782.99,402.01,786.174C378.061,789.312,352.021,790.823,329.648,787.686C309.465,784.855,285.567,779.839,273.367,770.303C264.461,763.341,257.339,752.217,257.138,743.434C256.95,735.201,263.682,726.568,270.307,719.192" stroke="rgba(102,102,102,0.15)" stroke-width="3" fill="none" stroke-linecap="round" stroke-miterlimit="4"></path><path d="M337.636,719.192C343.419,713.201,351.451,708.776,361.809,703.702C377.78,695.88,405.157,686.099,426.131,680.873C445.28,676.101,469.359,672.234,482.412,672.519C489.415,672.672,494.233,673.071,498.492,675.629C502.494,678.033,506.729,682.527,507.581,686.869C508.501,691.561,505.941,697.502,502.712,703.03C498.157,710.83,489.562,720.003,479.458,727.273C466.322,736.724,446.817,746.482,428.118,751.515C407.874,756.964,378.309,758.956,361.809,757.145C351.641,756.029,343.454,753.888,337.688,749.595C332.934,746.056,328.215,740.299,328.068,735.354C327.914,730.183,332.958,724.038,337.636,719.192" stroke="rgba(102,102,102,0.15)" stroke-width="3" fill="none" stroke-linecap="round" stroke-miterlimit="4"></path><path d="M743.963,492.929C763.633,482.501,788.807,476.673,812.06,474.154C835.612,471.603,866.664,472.847,884.422,478.01C895.927,481.356,905.297,486.775,910.925,492.929C915.221,497.628,918.012,503.115,918.205,509.091C918.439,516.312,913.938,526.58,909.119,533.333C904.345,540.022,898.921,544.547,889.527,549.495C872.792,558.31,839.583,568.44,812.06,571.763C781.937,575.4,734.601,573.437,715.578,567.942C706.756,565.394,700.854,562.963,697.588,557.576C694.057,551.752,692.988,541.539,696.569,533.333C702.305,520.186,725.494,502.721,743.963,492.929" stroke="rgba(102,102,102,0.15)" stroke-width="3" fill="none" stroke-linecap="round" stroke-miterlimit="4"></path><path d="M1069.271,796C1069.271,796,1064.511,781.908,1065.753,775.758C1066.954,769.812,1069.954,763.957,1076.126,759.596C1086.953,751.946,1112.815,746.786,1133.668,746.123C1158.162,745.344,1188.558,751.351,1214.07,759.629C1239.468,767.869,1286.432,795.573,1286.432,795.573" stroke="rgba(102,102,102,0.15)" stroke-width="3" fill="none" stroke-linecap="round" stroke-miterlimit="4"></path><path d="M1134.083,796C1134.083,796,1137.643,786.571,1141.768,783.838C1147.139,780.28,1156.133,779.362,1165.829,779.88C1181.098,780.697,1224.102,796,1224.102,796" stroke="rgba(102,102,102,0.15)" stroke-width="3" fill="none" stroke-linecap="round" stroke-miterlimit="4"></path></svg>